<?xml version="1.0" encoding="UTF-8"?>
<!DOCTYPE svg PUBLIC "-//W3C//DTD SVG 1.1//EN" "http://www.w3.org/Graphics/SVG/1.1/DTD/svg11.dtd">
<!-- Creator: CorelDRAW -->
<svg xmlns="http://www.w3.org/2000/svg" xml:space="preserve" width="6.82666in" height="6.82666in" style="shape-rendering:geometricPrecision; text-rendering:geometricPrecision; image-rendering:optimizeQuality; fill-rule:evenodd; clip-rule:evenodd"
viewBox="0 0 6.82666 6.82666"
 xmlns:xlink="http://www.w3.org/1999/xlink">
 <defs>
  <style type="text/css">
   <![CDATA[
    .fil1 {fill:none}
    .fil0 {fill:black;fill-rule:nonzero}
   ]]>
  </style>
 </defs>
 <g id="Layer_x0020_1">
  <metadata id="CorelCorpID_0Corel-Layer"/>
  <g id="_461102928">
   <path id="_461087256" class="fil0" d="M3.41333 0.853331c0.588142,0 1.12061,0.238398 1.50604,0.623831 0.385429,0.385429 0.623831,0.917902 0.623831,1.50604 0,0.588142 -0.238402,1.12061 -0.623831,1.50604 -0.385429,0.385429 -0.917902,0.623831 -1.50604,0.623831 -0.588138,0 -1.12061,-0.238402 -1.50604,-0.623831 -0.385429,-0.385429 -0.623831,-0.917902 -0.623831,-1.50604 0,-0.588142 0.238402,-1.12061 0.623831,-1.50604 0.385429,-0.385433 0.917898,-0.623831 1.50604,-0.623831zm1.43062 0.699248c-0.366118,-0.366122 -0.871925,-0.592579 -1.43062,-0.592579 -0.558697,0 -1.0645,0.226457 -1.43062,0.592579 -0.366122,0.366122 -0.592579,0.871929 -0.592579,1.43063 0,0.558697 0.226457,1.0645 0.592579,1.43063 0.366122,0.366122 0.871929,0.592579 1.43062,0.592579 0.558693,0 1.0645,-0.226457 1.43062,-0.592579 0.366122,-0.366122 0.592579,-0.871929 0.592579,-1.43063 0,-0.558697 -0.226457,-1.0645 -0.592579,-1.43063z"/>
   <path id="_461086872" class="fil0" d="M3.41333 2.74952c0.0645236,0 0.122949,0.0261614 0.165236,0.0684488 0.0422874,0.0422874 0.0684488,0.100717 0.0684488,0.16524 0,0.0645236 -0.0261614,0.122949 -0.0684488,0.165236 -0.0422874,0.0422874 -0.100713,0.0684488 -0.165236,0.0684488 -0.0645236,0 -0.122949,-0.0261614 -0.165236,-0.0684488 -0.0422874,-0.0422874 -0.0684488,-0.100713 -0.0684488,-0.165236 0,-0.0645236 0.0261614,-0.122953 0.0684488,-0.16524 0.0422874,-0.0422874 0.100713,-0.0684488 0.165236,-0.0684488zm0.0898189 0.143866c-0.0229803,-0.0229803 -0.0547402,-0.0371969 -0.0898189,-0.0371969 -0.0350787,0 -0.0668386,0.0142165 -0.0898189,0.0371969 -0.0229803,0.0229803 -0.0371969,0.0547441 -0.0371969,0.0898228 0,0.0350787 0.0142165,0.0668386 0.0371969,0.0898189 0.0229803,0.0229803 0.0547402,0.0371969 0.0898189,0.0371969 0.0350787,0 0.0668386,-0.0142165 0.0898189,-0.0371969 0.0229803,-0.0229803 0.0371969,-0.0547402 0.0371969,-0.0898189 0,-0.0350787 -0.0142165,-0.0668425 -0.0371969,-0.0898228z"/>
   <path id="_461087496" class="fil0" d="M4.7286 2.29277c0.0254252,-0.0147244 0.0340984,-0.0472795 0.019374,-0.0727047 -0.0147244,-0.0254252 -0.0472795,-0.0340984 -0.0727047,-0.019374l-1.12638 0.650319c-0.0254252,0.0147244 -0.0340984,0.0472795 -0.019374,0.0727047 0.0147244,0.0254252 0.0472795,0.0340984 0.0727047,0.019374l1.12638 -0.650319z"/>
   <path id="_461086896" class="fil0" d="M3.41333 4.0822c0.0648346,0 0.123543,0.0262874 0.166031,0.0687795 0.0424921,0.0424921 0.0687795,0.101201 0.0687795,0.166035 0,0.0648346 -0.0262874,0.123543 -0.0687795,0.166031 -0.0424882,0.0424921 -0.101197,0.0687795 -0.166031,0.0687795 -0.0648346,0 -0.123543,-0.0262874 -0.166031,-0.0687795 -0.0424921,-0.0424882 -0.0687795,-0.101197 -0.0687795,-0.166031 0,-0.0648346 0.0262874,-0.123543 0.0687795,-0.166035 0.0424882,-0.0424921 0.101197,-0.0687795 0.166031,-0.0687795zm0.0906142 0.144197c-0.0231811,-0.023185 -0.0552244,-0.0375276 -0.0906142,-0.0375276 -0.0353898,0 -0.0674331,0.0143425 -0.0906142,0.0375276 -0.023185,0.023185 -0.0375276,0.0552283 -0.0375276,0.0906181 0,0.0353898 0.0143425,0.0674331 0.0375276,0.0906142 0.0231811,0.023185 0.0552244,0.0375276 0.0906142,0.0375276 0.0353898,0 0.0674331,-0.0143425 0.0906142,-0.0375276 0.023185,-0.0231811 0.0375276,-0.0552244 0.0375276,-0.0906142 0,-0.0353898 -0.0143425,-0.0674331 -0.0375276,-0.0906181z"/>
   <path id="_461103024" class="fil0" d="M4.07107 4.97817c0,-0.0294528 -0.0238819,-0.0533346 -0.0533346,-0.0533346 -0.0294528,0 -0.0533346,0.0238819 -0.0533346,0.0533346l0 0.440846 -1.10214 0 0 -0.440846c0,-0.0294528 -0.0238819,-0.0533346 -0.0533346,-0.0533346 -0.0294528,0 -0.0533346,0.0238819 -0.0533346,0.0533346l0 0.494181c0,0.0294528 0.0238819,0.0533346 0.0533346,0.0533346l1.20881 0c0.0294528,0 0.0533346,-0.0238819 0.0533346,-0.0533346l0 -0.494181z"/>
   <path id="_461102712" class="fil0" d="M3.36 1.1544c0,0.0294528 0.0238819,0.0533346 0.0533346,0.0533346 0.0294528,0 0.0533346,-0.0238819 0.0533346,-0.0533346l0 -0.240252c0,-0.0294528 -0.0238819,-0.0533346 -0.0533346,-0.0533346 -0.0294528,0 -0.0533346,0.0238819 -0.0533346,0.0533346l0 0.240252z"/>
   <path id="_461102688" class="fil0" d="M4.28169 1.37275c-0.0147244,0.0254252 -0.00605118,0.0579803 0.019374,0.0727047 0.0254252,0.0147244 0.0579803,0.00605118 0.0727047,-0.019374l0.120126 -0.208063c0.0147244,-0.0254252 0.00605118,-0.0579803 -0.019374,-0.0727047 -0.0254252,-0.0147244 -0.0579803,-0.00605118 -0.0727047,0.019374l-0.120126 0.208063z"/>
   <path id="_461102736" class="fil0" d="M4.97045 2.02276c-0.0254252,0.0147244 -0.0340984,0.0472795 -0.019374,0.0727047 0.0147244,0.0254252 0.0472795,0.0340984 0.0727047,0.019374l0.208063 -0.120126c0.0254252,-0.0147244 0.0340984,-0.0472795 0.019374,-0.0727047 -0.0147244,-0.0254252 -0.0472795,-0.0340984 -0.0727047,-0.019374l-0.208063 0.120126z"/>
   <path id="_461102328" class="fil0" d="M1.59482 3.97169c-0.0254252,0.0147244 -0.0340984,0.0472795 -0.019374,0.0727047 0.0147244,0.0254252 0.0472795,0.0340984 0.0727047,0.019374l0.208063 -0.120126c0.0254252,-0.0147244 0.0340984,-0.0472795 0.019374,-0.0727047 -0.0147244,-0.0254252 -0.0472795,-0.0340984 -0.0727047,-0.019374l-0.208063 0.120126z"/>
   <path id="_461102544" class="fil0" d="M5.24213 2.92987c-0.0294528,0 -0.0533346,0.0238819 -0.0533346,0.0533346 0,0.0294528 0.0238819,0.0533346 0.0533346,0.0533346l0.240252 0c0.0294528,0 0.0533346,-0.0238819 0.0533346,-0.0533346 0,-0.0294528 -0.0238819,-0.0533346 -0.0533346,-0.0533346l-0.240252 0z"/>
   <path id="_461102784" class="fil0" d="M1.34428 2.92987c-0.0294528,0 -0.0533346,0.0238819 -0.0533346,0.0533346 0,0.0294528 0.0238819,0.0533346 0.0533346,0.0533346l0.240252 0c0.0294528,0 0.0533346,-0.0238819 0.0533346,-0.0533346 0,-0.0294528 -0.0238819,-0.0533346 -0.0533346,-0.0533346l-0.240252 0z"/>
   <path id="_461102640" class="fil0" d="M5.02378 3.85157c-0.0254252,-0.0147244 -0.0579803,-0.00605118 -0.0727047,0.019374 -0.0147244,0.0254252 -0.00605118,0.0579803 0.019374,0.0727047l0.208063 0.120126c0.0254252,0.0147244 0.0579803,0.00605118 0.0727047,-0.019374 0.0147244,-0.0254252 0.00605118,-0.0579803 -0.019374,-0.0727047l-0.208063 -0.120126z"/>
   <path id="_461102496" class="fil0" d="M1.64815 1.90264c-0.0254252,-0.0147244 -0.0579803,-0.00605118 -0.0727047,0.019374 -0.0147244,0.0254252 -0.00605118,0.0579803 0.019374,0.0727047l0.208063 0.120126c0.0254252,0.0147244 0.0579803,0.00605118 0.0727047,-0.019374 0.0147244,-0.0254252 0.00605118,-0.0579803 -0.019374,-0.0727047l-0.208063 -0.120126z"/>
   <path id="_461102856" class="fil0" d="M2.42485 1.16469c-0.0147244,-0.0254252 -0.0472795,-0.0340984 -0.0727047,-0.019374 -0.0254252,0.0147244 -0.0340984,0.0472795 -0.019374,0.0727047l0.120126 0.208063c0.0147244,0.0254252 0.0472795,0.0340984 0.0727047,0.019374 0.0254252,-0.0147244 0.0340984,-0.0472795 0.019374,-0.0727047l-0.120126 -0.208063z"/>
   <path id="_461102904" class="fil0" d="M3.16763 5.41901l0.491409 0c0.0294528,0 0.0533346,0.0238819 0.0533346,0.0533346l0 0.44765c0,0.0294528 -0.0238819,0.0533346 -0.0533346,0.0533346l-0.491409 0c-0.0294528,0 -0.0533346,-0.0238819 -0.0533346,-0.0533346l0 -0.44765c0,-0.0294528 0.0238819,-0.0533346 0.0533346,-0.0533346zm0.438075 0.106669l-0.38474 0 0 0.34098 0.38474 0 0 -0.34098z"/>
  </g>
 </g>
 <rect class="fil1" width="6.82666" height="6.82666"/>
</svg>
