<?xml version="1.0" encoding="utf-8"?>
<!-- Generator: Adobe Illustrator 16.0.0, SVG Export Plug-In . SVG Version: 6.00 Build 0)  -->
<!DOCTYPE svg PUBLIC "-//W3C//DTD SVG 1.1//EN" "http://www.w3.org/Graphics/SVG/1.1/DTD/svg11.dtd">
<svg version="1.1" id="Layer_1" xmlns="http://www.w3.org/2000/svg" xmlns:xlink="http://www.w3.org/1999/xlink" x="0px" y="0px"
	 width="38.625px" height="38.736px" viewBox="-212.98 86 38.625 38.736" enable-background="new -212.98 86 38.625 38.736"
	 xml:space="preserve">
<g>
	<path fill="#363636" d="M-181.566,97.384c-0.001-0.013-3.32-0.571-6.539,1.71c1.312-2.281,3.094-3.812,6.123-4.121
		c-1.408-5.168-6.114-8.973-11.73-8.973c-4.432,0-8.305,2.373-10.435,5.912c2.729,0.119,5.606,2.18,7.405,4.506
		c-1.703-1.318-3.835-2.111-6.156-2.111c-0.84,0-1.652,0.115-2.432,0.312c-0.002-0.021-0.009-0.043-0.011-0.063
		c-0.008,0.022-0.018,0.047-0.025,0.07c-4.372,1.104-7.614,5.05-7.614,9.766c0,5.565,4.514,10.08,10.082,10.08h19.939
		c4.752,0,8.604-3.853,8.604-8.604C-174.355,101.588-177.479,98.051-181.566,97.384z M-191.98,102.469
		c1.656,0,1.907,0.781,0.559,1.744l-8.873,7.256l3-6h-2c-1.656,0-2.182-1.064-1.173-2.379l2.487-3.621h8l-3.799,3H-191.98z"/>
	<path fill="#363636" d="M-207.139,120.443c-0.195,0.195-0.512,0.195-0.707,0l0,0c-0.195-0.195-0.195-0.512,0-0.707l2.121-2.121
		c0.195-0.195,0.512-0.195,0.707,0l0,0c0.195,0.195,0.195,0.512,0,0.707L-207.139,120.443z"/>
	<path fill="#363636" d="M-201.26,120.443c-0.195,0.195-0.512,0.195-0.707,0l0,0c-0.195-0.195-0.195-0.512,0-0.707l2.121-2.121
		c0.195-0.195,0.512-0.195,0.707,0l0,0c0.195,0.195,0.195,0.512,0,0.707L-201.26,120.443z"/>
	<path fill="#363636" d="M-195.381,120.443c-0.195,0.195-0.512,0.195-0.707,0l0,0c-0.195-0.195-0.195-0.512,0-0.707l2.121-2.121
		c0.195-0.195,0.512-0.195,0.707,0l0,0c0.195,0.195,0.195,0.512,0,0.707L-195.381,120.443z"/>
	<path fill="#363636" d="M-189.502,120.443c-0.195,0.195-0.512,0.195-0.707,0l0,0c-0.195-0.195-0.195-0.512,0-0.707l2.121-2.121
		c0.195-0.195,0.512-0.195,0.707,0l0,0c0.195,0.195,0.195,0.512,0,0.707L-189.502,120.443z"/>
	<path fill="#363636" d="M-183.623,120.443c-0.195,0.195-0.512,0.195-0.707,0l0,0c-0.195-0.195-0.195-0.512,0-0.707l2.121-2.121
		c0.195-0.195,0.512-0.195,0.707,0l0,0c0.195,0.195,0.195,0.512,0,0.707L-183.623,120.443z"/>
	<path fill="#363636" d="M-207.139,124.59c-0.195,0.195-0.512,0.195-0.707,0l0,0c-0.195-0.195-0.195-0.512,0-0.707l2.121-2.121
		c0.195-0.195,0.512-0.195,0.707,0l0,0c0.195,0.195,0.195,0.512,0,0.707L-207.139,124.59z"/>
	<path fill="#363636" d="M-201.26,124.59c-0.195,0.195-0.512,0.195-0.707,0l0,0c-0.195-0.195-0.195-0.512,0-0.707l2.121-2.121
		c0.195-0.195,0.512-0.195,0.707,0l0,0c0.195,0.195,0.195,0.512,0,0.707L-201.26,124.59z"/>
	<path fill="#363636" d="M-195.381,124.59c-0.195,0.195-0.512,0.195-0.707,0l0,0c-0.195-0.195-0.195-0.512,0-0.707l2.121-2.121
		c0.195-0.195,0.512-0.195,0.707,0l0,0c0.195,0.195,0.195,0.512,0,0.707L-195.381,124.59z"/>
	<path fill="#363636" d="M-189.502,124.59c-0.195,0.195-0.512,0.195-0.707,0l0,0c-0.195-0.195-0.195-0.512,0-0.707l2.121-2.121
		c0.195-0.195,0.512-0.195,0.707,0l0,0c0.195,0.195,0.195,0.512,0,0.707L-189.502,124.59z"/>
	<path fill="#363636" d="M-183.623,124.59c-0.195,0.195-0.512,0.195-0.707,0l0,0c-0.195-0.195-0.195-0.512,0-0.707l2.121-2.121
		c0.195-0.195,0.512-0.195,0.707,0l0,0c0.195,0.195,0.195,0.512,0,0.707L-183.623,124.59z"/>
</g>
</svg>
