<svg height="882" width="925" xmlns="http://www.w3.org/2000/svg" xmlns:xlink="http://www.w3.org/1999/xlink"><defs><linearGradient id="a"><stop offset="0" stop-color="#ff8f71"/><stop offset="1" stop-color="#ff3e55"/></linearGradient><linearGradient id="b" x1="0%" x2="100%" xlink:href="#a" y1="27.881%" y2="72.119%"/><linearGradient id="c" x1="0%" x2="100%" xlink:href="#a" y1="41.725%" y2="58.275%"/><filter id="d" height="132.8%" width="121.8%" x="-10.9%" y="-11.7%"><feOffset dy="20" in="SourceAlpha" result="shadowOffsetOuter1"/><feGaussianBlur in="shadowOffsetOuter1" result="shadowBlurOuter1" stdDeviation="20"/><feColorMatrix in="shadowBlurOuter1" values="0 0 0 0 0.421821759 0 0 0 0 0.554338424 0 0 0 0 0.893710371 0 0 0 0.243444056 0"/></filter><rect id="e" height="427" rx="15" width="642"/><mask id="f" fill="#fff"><use fill="#fff" fill-rule="evenodd" xlink:href="#e"/></mask></defs><g fill="none" fill-rule="evenodd" transform="translate(40)"><rect fill="#2d2e40" height="602" opacity=".08" rx="300" transform="matrix(1 0 0 -1 0 890)" width="600" x="145" y="144"/><rect height="681" opacity=".5" rx="339.5" stroke="#2d2e40" transform="matrix(1 0 0 -1 0 882)" width="679" x="105.5" y="100.5"/><rect height="881" opacity=".25" rx="439.5" stroke="#2d2e40" transform="matrix(1 0 0 -1 0 882)" width="879" x="5.5" y=".5"/><g transform="translate(0 242)"><g><g fill-rule="nonzero"><g><use fill="#000" filter="url(#d)" xlink:href="#e"/><use fill="url(#b)" xlink:href="#e"/></g><path d="m3 125h636a3 3 0 0 1 3 3v296a3 3 0 0 1 -3 3h-636a3 3 0 0 1 -3-3v-296a3 3 0 0 1 3-3z" fill="#2d2e40" mask="url(#f)"/><rect fill="#fff" height="137.165" mask="url(#f)" rx="3" width="135.785" x="90.523" y="47.709"/></g><ellipse cx="158.416" cy="116.888" fill="#2d2e40" mask="url(#f)" rx="39.306" ry="39.36"/><rect fill="#fff" fill-rule="nonzero" height="325.617" mask="url(#f)" rx="3" width="302.538" x="248.939" y="47.709"/></g><path d="m209 284c47.125-73.367 81.977-113.013 104.557-118.938 33.87-8.886 23.765 83.14 72.535 72.473 48.77-10.666 54.716-103.974 91.603-108.37 36.887-4.397 56.402 80.946 72.515 88.81 10.742 5.241 24.005-6.094 39.79-34.007" stroke="url(#c)" stroke-linecap="round" stroke-width="8"/></g></g></svg>